<svg width="207" height="74" viewBox="0 0 207 74" fill="none" xmlns="http://www.w3.org/2000/svg">
<path fill-rule="evenodd" clip-rule="evenodd" d="M118.227 0.529296C115.135 2.42308 113.312 6.43973 112.768 12.5516C112.614 14.2924 112.93 17.6595 113.521 20.5552L113.973 22.7667L112.698 24.103C108.584 28.4151 107.713 29.4085 106.427 31.2484C103.736 35.1016 102.69 38.063 102.69 41.8299C102.69 44.5241 103.113 46.2143 104.425 48.752C106.071 51.9376 108.635 54.4711 111.615 55.8561C114.068 56.9961 115.236 57.2314 118.37 57.2163L121.095 57.2032L121.587 59.2435C122.726 63.9622 122.932 66.3014 122.368 68.1233C121.749 70.1236 119.737 71.4986 117.199 71.6551C116.19 71.7172 115.655 71.6646 115.257 71.4641L114.707 71.1877L115.56 70.7762C117.399 69.8897 118.118 68.7748 118.118 66.8126C118.118 64.0736 116.164 62.0376 113.535 62.0376C109.827 62.0376 107.412 66.3768 109.109 69.9887C109.785 71.4253 111.082 72.6226 112.82 73.413C114.073 73.9829 114.186 74 116.711 74H119.311L120.742 73.3203C124.065 71.7413 125.515 69.2191 125.278 65.4304C125.218 64.4675 124.818 62.0627 124.39 60.0863C123.962 58.11 123.612 56.4063 123.612 56.3006C123.612 56.1948 124.081 55.8872 124.655 55.6168C127.104 54.4635 129.382 51.6652 130.035 49.0094C130.407 47.4918 130.405 44.6599 130.031 43.1338C129.265 40.0167 127.068 37.23 124.397 35.9903C123.09 35.3834 122.747 35.306 121.066 35.2385C119.343 35.1694 119.185 35.132 119.099 34.7703C119.047 34.5541 118.747 33.1746 118.431 31.7049C117.883 29.1503 117.872 29.0154 118.191 28.6385C118.375 28.4217 119.093 27.572 119.786 26.75C121.342 24.9073 122.617 22.6182 123.499 20.0869C125.635 13.9559 125.046 6.683 122.05 2.19161C120.477 -0.166408 119.825 -0.449849 118.227 0.529296ZM119.177 7.79926C118.44 8.2751 117.464 9.7358 116.877 11.2418C115.617 14.4749 115.278 17.8679 115.965 20.3709L116.167 21.1081L117.037 20.187C118.988 18.1194 120.953 14.7598 121.581 12.4198C121.927 11.1268 121.979 9.11603 121.685 8.37296C121.268 7.32194 120.271 7.0936 119.177 7.79926ZM113.125 33.2253C109.931 36.3778 108.34 38.6513 107.417 41.3803C106.662 43.6137 106.681 46.4802 107.464 48.4584C108.974 52.2732 113.067 54.9433 117.366 54.9176C118.636 54.9103 120.261 54.7024 120.447 54.524C120.611 54.367 117.944 41.7778 117.733 41.7103C117.614 41.6724 117.018 42.08 116.407 42.6161C114.453 44.3312 113.912 46.2694 114.85 48.1991C115.262 49.0466 115.922 49.7149 117.459 50.8392C118.651 51.711 117.928 52.6932 116.414 52.259C113.201 51.3381 110.751 48.0765 110.751 44.7198C110.751 41.5071 113.026 37.7125 115.79 36.3135C116.384 36.0126 116.67 35.7582 116.618 35.5763C116.574 35.4236 116.344 34.3243 116.108 33.1332C115.871 31.9421 115.618 30.9677 115.545 30.9677C115.472 30.9677 114.383 31.9836 113.125 33.2253ZM27.7212 33.1599C27.2145 33.3809 26.8554 33.6945 26.7018 34.0502C26.5235 34.464 26.4797 36.5039 26.5248 42.3207L26.5849 50.042L27.1254 51.5163C27.8153 53.3981 28.5401 54.4783 29.9604 55.7409C32.0304 57.5808 34.5763 58.4183 38.118 58.4242C43.8282 58.4336 47.9553 55.5798 49.45 50.5884C49.7287 49.6583 49.7915 48.3832 49.8582 42.3017C49.9427 34.613 49.8893 34.0368 49.0312 33.3888C47.9563 32.5768 46.0008 32.7834 45.2211 33.7913C44.8314 34.2948 44.8157 34.557 44.7215 42.0844C44.6272 49.6069 44.6101 49.8909 44.1921 50.8859C43.6234 52.2393 42.6066 53.3524 41.3903 53.9532C40.1081 54.5866 37.4675 54.7547 35.8585 54.3056C33.6043 53.6764 32.1092 51.8554 31.6774 49.2127C31.5697 48.5538 31.481 44.9367 31.4802 41.1748C31.4787 34.4382 31.4724 34.327 31.0626 33.8269C30.6094 33.2736 29.6343 32.8083 28.9416 32.8147C28.7007 32.8169 28.1516 32.9723 27.7212 33.1599ZM62.6695 33.0003C57.9408 33.6984 54.9152 36.0999 53.7914 40.0469C53.5079 41.0434 53.4637 42.2241 53.4603 48.9362C53.4558 57.3774 53.4866 57.6417 54.5294 58.1595C55.6949 58.7382 57.663 58.3621 58.2011 57.4579C58.3861 57.147 58.4704 55.0441 58.5427 48.9362C58.6381 40.8766 58.6416 40.8215 59.0973 39.8529C59.6669 38.6424 60.9322 37.5446 62.2528 37.115C63.693 36.6465 66.569 36.6604 67.927 37.1423C69.3002 37.6295 70.4755 38.6529 71.0404 39.8529C71.496 40.8215 71.4995 40.8766 71.5949 48.9362C71.6672 55.0441 71.7515 57.147 71.9365 57.4579C72.4715 58.3569 74.4418 58.7386 75.594 58.1665C76.6775 57.6286 76.6814 57.5956 76.6814 49.0461C76.6814 40.4783 76.6386 40.072 75.5121 37.9375C74.8201 36.6263 73.1565 35.0008 71.7916 34.3023C69.5695 33.1652 65.4936 32.5834 62.6695 33.0003ZM135.416 33.0591C135.099 33.199 134.667 33.499 134.456 33.7262C134.085 34.1262 134.071 34.4374 134.019 43.6504C133.984 50.0227 134.036 53.4824 134.176 54.1338C134.482 55.547 135.393 56.7482 136.664 57.4137L137.719 57.9666H145.75H153.78L154.243 57.4494C154.74 56.8951 154.86 55.9145 154.509 55.2842C154.028 54.4223 153.604 54.3729 146.68 54.3729C140.412 54.3729 140.152 54.3589 139.671 53.9958L139.172 53.6187L139.117 43.998C139.059 33.5959 139.096 33.9642 138.038 33.2526C137.46 32.8641 136.088 32.7629 135.416 33.0591ZM166.71 33.0034C162.168 33.6877 159.086 36.1871 157.829 40.2065C157.359 41.7081 157.223 56.4714 157.672 57.3035C158.438 58.7251 161.095 58.823 162.084 57.4658C162.329 57.1312 162.384 56.4497 162.384 53.7789V50.5027H169.006H175.628V53.6449C175.628 57.1479 175.758 57.6437 176.814 58.168C177.239 58.379 177.732 58.443 178.475 58.3838C179.362 58.3132 179.619 58.206 180.075 57.7156L180.619 57.1314V49.5157C180.619 41.0179 180.528 40.2563 179.246 37.9463C178.009 35.7173 175.473 33.9006 172.729 33.2773C171.149 32.9181 168.173 32.7828 166.71 33.0034ZM184.668 33.0432C184.308 33.1688 183.833 33.506 183.612 33.7926C183.24 34.2749 183.21 34.5502 183.216 37.4784C183.223 41.1681 183.523 42.7608 184.597 44.8227C185.887 47.2986 188.435 49.202 191.291 49.8238L192.423 50.0704L192.519 53.5577C192.584 55.8981 192.696 57.1809 192.861 57.4579C193.629 58.7485 196.592 58.7485 197.36 57.4579C197.525 57.1809 197.637 55.8979 197.702 53.5572L197.798 50.0691L198.812 49.8502C201.662 49.235 204.366 47.238 205.628 44.8158C206.68 42.7958 206.983 41.175 206.998 37.479C207.01 34.545 206.982 34.2771 206.609 33.7931C205.764 32.6971 203.763 32.5759 202.625 33.5517L202.02 34.0699L201.909 37.725C201.812 40.9219 201.743 41.5139 201.365 42.4458C200.699 44.087 199.89 44.9729 198.384 45.7111C197.137 46.3226 196.967 46.3562 195.126 46.3562C193.317 46.3562 193.095 46.3143 191.899 45.7495C190.385 45.0337 189.431 44.0481 188.845 42.5927C188.491 41.7138 188.414 41.0414 188.316 37.9622C188.194 34.1636 188.072 33.6558 187.169 33.1916C186.554 32.8759 185.351 32.8046 184.668 33.0432ZM1.02287 33.4446C0.27851 33.7596 0 34.2247 0 35.1534C0 36.0756 0.416709 36.6211 1.30118 36.857C1.69409 36.9617 3.67802 37.0477 5.71032 37.0483L9.40522 37.0494V46.9925C9.40522 54.3089 9.46588 57.0634 9.6346 57.4189C9.7607 57.6846 10.1018 58.0202 10.3928 58.1647C11.0853 58.5086 12.5412 58.4999 13.2504 58.1477C14.4136 57.5702 14.3958 57.7447 14.3958 46.9182V37.0494L18.1866 37.049C21.4113 37.0488 22.0779 37.0007 22.6491 36.7265C23.9014 36.1257 24.1302 34.6352 23.1109 33.7155L22.6186 33.2714L12.1251 33.2294C3.48876 33.1947 1.52384 33.2329 1.02287 33.4446ZM84.2631 33.4669C82.7167 33.8659 81.7767 34.5723 81.0986 35.8452L80.5202 36.9303L80.4628 45.0259C80.4241 50.4856 80.4753 53.4446 80.62 54.1139C80.9297 55.5459 81.8352 56.7453 83.1115 57.4137L84.1672 57.9666L91.8994 58.0206L99.6317 58.0744L100.201 57.528C100.946 56.8131 100.99 55.7447 100.307 54.9821L99.8443 54.465L93.1292 54.3729C86.8711 54.287 86.3866 54.2568 86.0104 53.9296C85.6305 53.5994 85.6067 53.3952 85.6067 50.4742V47.3698H90.4015C96.4926 47.3698 97.1233 47.1882 97.1233 45.4347C97.1233 43.6456 96.6243 43.4996 90.5074 43.4996H85.6067V40.6431C85.6067 38.0322 85.6398 37.7549 85.9906 37.418C86.3578 37.0654 86.6304 37.0494 92.2349 37.0494C98.5213 37.0494 99.0505 36.9825 99.6894 36.1064C100.181 35.432 100.086 34.5644 99.4426 33.8733L98.8827 33.2714L92.1008 33.2331C86.6254 33.2021 85.1154 33.2471 84.2631 33.4669ZM167.279 36.8583C163.8 37.5849 162.399 39.9491 162.388 45.1122L162.384 46.8169H169.027H175.67L175.577 44.0986C175.526 42.6034 175.384 41.0753 175.263 40.7026C174.723 39.0447 173.161 37.521 171.518 37.0485C170.519 36.761 168.235 36.6585 167.279 36.8583ZM120.478 41.8666C121.917 48.8085 122.997 53.5312 123.158 53.5826C123.488 53.6884 124.905 52.2441 125.411 51.2862C126.025 50.1213 126.378 48.3428 126.243 47.0867C125.955 44.4058 123.623 41.8369 121.058 41.3749L120.35 41.2472L120.478 41.8666Z" fill="#FFC369"/>
</svg>
