<svg width="33" height="32" viewBox="0 0 33 32" fill="none" xmlns="http://www.w3.org/2000/svg">
<path fill-rule="evenodd" clip-rule="evenodd" d="M5.55632 0.174541C5.16187 0.257516 4.44841 0.509624 3.97084 0.734842C2.76882 1.30151 1.34461 2.68081 0.756515 3.84773C-0.0337313 5.41569 -0.0236531 5.2459 0.0124731 16.4147L0.0447493 26.4025L0.391289 27.3402C0.821406 28.5043 1.37757 29.3276 2.29635 30.1606C3.16191 30.9454 3.75997 31.2939 4.92688 31.6938L5.82041 32H16.5224H27.2243L28.1919 31.6641C29.3956 31.2464 30.2427 30.7081 31.109 29.8106C31.9022 28.9889 32.3737 28.2236 32.7358 27.1708L33 26.4025V16.0306V5.65869L32.7376 4.8904C31.9366 2.54548 29.818 0.658892 27.4362 0.169822C26.3193 -0.0594575 6.64882 -0.055287 5.55632 0.174541ZM5.79459 1.48107C3.68715 1.97596 1.90497 3.75652 1.47066 5.80126C1.29728 6.61729 1.29875 25.4536 1.47224 26.2599C1.91867 28.3347 3.82668 30.1839 5.96752 30.6165C6.80601 30.786 26.2387 30.786 27.0772 30.6165C29.2181 30.1839 31.1261 28.3347 31.5725 26.2599C31.7466 25.4509 31.7474 6.61587 31.5734 5.80126C31.2486 4.28071 30.0493 2.71878 28.6527 1.99736C27.3293 1.31369 27.552 1.32588 16.4657 1.33433C8.7412 1.34025 6.24838 1.3745 5.79459 1.48107ZM26.1624 4.51087C24.9435 4.77593 24.337 6.06512 24.928 7.13457C25.8611 8.82272 28.4396 8.17264 28.4396 6.24929C28.4396 5.0929 27.3413 4.25448 26.1624 4.51087ZM26.2572 5.91453C25.912 6.18541 26.0216 6.66636 26.4524 6.77117C26.6844 6.82759 26.8002 6.78763 26.9604 6.596C27.2224 6.28232 27.2201 6.20341 26.9412 5.93308C26.6623 5.66275 26.5809 5.66056 26.2572 5.91453ZM14.5405 7.32215C11.105 8.03226 8.24438 10.8338 7.52944 14.1883C6.3477 19.7332 10.6945 24.9208 16.5224 24.9208C19.0998 24.9208 21.3791 23.9689 23.1652 22.1466C24.8944 20.3824 25.6965 18.4183 25.6947 15.9529C25.6916 11.8789 22.7694 8.31708 18.6431 7.35836C17.5168 7.09671 15.7086 7.08068 14.5405 7.32215ZM14.6546 8.63471C12.0824 9.23738 9.89157 11.2364 9.03168 13.7654C8.80507 14.4318 8.76521 14.7705 8.76509 16.0306C8.76487 17.2884 8.80462 17.6284 9.02828 18.2806C9.46293 19.5487 10.0157 20.3939 11.075 21.41C12.7407 23.0078 14.5683 23.6845 16.9165 23.5728C19.0787 23.4698 20.5037 22.8437 22.0879 21.3C22.8798 20.5284 23.1535 20.1699 23.521 19.4231C24.117 18.2119 24.3368 17.2938 24.3348 16.0236C24.3328 14.7388 24.1156 13.8169 23.5476 12.683C22.5507 10.6928 20.5427 9.13091 18.3343 8.62823C17.4153 8.41904 15.5612 8.42233 14.6546 8.63471Z" fill="white"/>
</svg>
