<svg width="163" height="60" viewBox="0 0 163 60" fill="none" xmlns="http://www.w3.org/2000/svg">
<path fill-rule="evenodd" clip-rule="evenodd" d="M93.0964 1.2956C90.6619 2.78459 89.2261 5.94267 88.7983 10.7481C88.6765 12.1168 88.9259 14.7642 89.3911 17.041L89.7465 18.7798L88.7427 19.8304C85.5037 23.2208 84.8174 24.0018 83.8052 25.4485C81.6857 28.478 80.8619 30.8064 80.8619 33.7682C80.8619 35.8864 81.1955 37.2153 82.2281 39.2106C83.5245 41.7153 85.5436 43.7072 87.8901 44.7962C89.8216 45.6925 90.7416 45.8775 93.2095 45.8657L95.3548 45.8554L95.7425 47.4596C96.6392 51.1696 96.8013 53.0088 96.3577 54.4413C95.8704 56.014 94.2856 57.0951 92.2872 57.2181C91.4925 57.2669 91.0717 57.2256 90.7579 57.068L90.3251 56.8506L90.9969 56.5271C92.4442 55.8301 93.0107 54.9535 93.0107 53.4107C93.0107 51.2572 91.4718 49.6564 89.4016 49.6564C86.4818 49.6564 84.5802 53.068 85.9171 55.9079C86.4487 57.0374 87.4704 57.9788 88.8389 58.6003C89.8255 59.0483 89.9145 59.0618 91.9027 59.0618H93.9502L95.0767 58.5274C97.6939 57.2859 98.8358 55.3028 98.6488 52.324C98.6014 51.5669 98.2867 49.6761 97.9495 48.1222C97.6124 46.5683 97.3366 45.2288 97.3366 45.1457C97.3366 45.0625 97.7065 44.8207 98.1584 44.6081C100.087 43.7013 101.881 41.5012 102.394 39.413C102.688 38.2198 102.686 35.9932 102.391 34.7933C101.789 32.3425 100.058 30.1515 97.9552 29.1767C96.926 28.6996 96.6556 28.6387 95.3324 28.5857C93.9755 28.5313 93.8512 28.5019 93.7832 28.2175C93.7424 28.0475 93.5059 26.9629 93.2574 25.8074C92.8256 23.7988 92.8173 23.6927 93.0685 23.3964C93.2131 23.226 93.7782 22.5579 94.3246 21.9116C95.5493 20.4628 96.5537 18.663 97.248 16.6728C98.9301 11.8523 98.4664 6.13394 96.1071 2.60259C94.8686 0.748603 94.3551 0.525747 93.0964 1.2956ZM93.8449 7.01159C93.264 7.38572 92.4955 8.5342 92.0333 9.71832C91.0413 12.2603 90.7744 14.928 91.3153 16.8961L91.4746 17.4757L92.1592 16.7514C93.6957 15.1258 95.2434 12.4843 95.7374 10.6445C96.0102 9.6279 96.051 8.0469 95.8193 7.46267C95.4916 6.6363 94.706 6.45677 93.8449 7.01159ZM89.0792 27.0028C86.5641 29.4814 85.3112 31.2689 84.5846 33.4146C83.99 35.1706 84.0048 37.4244 84.6213 38.9798C85.8101 41.9792 89.0331 44.0785 92.4184 44.0583C93.4187 44.0525 94.6984 43.8891 94.8448 43.7488C94.9736 43.6254 92.8736 33.7271 92.7075 33.6741C92.6143 33.6443 92.1445 33.9648 91.6634 34.3863C90.1245 35.7347 89.6987 37.2586 90.4374 38.7759C90.7617 39.4423 91.2816 39.9677 92.492 40.8517C93.4305 41.5371 92.8609 42.3094 91.6687 41.968C89.1389 41.244 87.21 38.6795 87.21 36.0403C87.21 33.5143 89.001 30.5308 91.1777 29.4309C91.6457 29.1943 91.8706 28.9943 91.8294 28.8513C91.7948 28.7312 91.614 27.8668 91.4278 26.9303C91.2414 25.9939 91.0421 25.2278 90.9846 25.2278C90.9272 25.2278 90.0696 26.0265 89.0792 27.0028ZM21.8288 26.9514C21.4298 27.1251 21.147 27.3717 21.0261 27.6514C20.8857 27.9767 20.8512 29.5806 20.8867 34.154L20.934 40.2249L21.3596 41.3841C21.9029 42.8636 22.4736 43.7129 23.592 44.7056C25.222 46.1523 27.2267 46.8107 30.0156 46.8153C34.512 46.8227 37.7619 44.579 38.9389 40.6545C39.1583 39.9232 39.2078 38.9206 39.2604 34.1391C39.3269 28.0939 39.2848 27.6408 38.6091 27.1313C37.7627 26.4929 36.2228 26.6553 35.6089 27.4478C35.3021 27.8436 35.2897 28.0498 35.2154 33.9683C35.1412 39.8828 35.1278 40.1061 34.7986 40.8884C34.3508 41.9525 33.5501 42.8277 32.5923 43.3001C31.5827 43.7981 29.5034 43.9302 28.2364 43.5771C26.4613 43.0824 25.2841 41.6507 24.944 39.5728C24.8592 39.0548 24.7894 36.2109 24.7888 33.253C24.7876 27.9564 24.7826 27.869 24.4599 27.4758C24.1031 27.0408 23.3352 26.6749 22.7898 26.68C22.6001 26.6817 22.1677 26.8039 21.8288 26.9514ZM49.3485 26.8259C45.6249 27.3748 43.2424 29.2629 42.3574 32.3663C42.1342 33.1497 42.0994 34.0781 42.0967 39.3555C42.0932 45.9923 42.1174 46.2001 42.9386 46.6073C43.8563 47.0622 45.4062 46.7665 45.8298 46.0556C45.9755 45.8112 46.0419 44.1577 46.0989 39.3555C46.174 33.0186 46.1767 32.9753 46.5355 32.2137C46.9841 31.262 47.9804 30.3988 49.0203 30.061C50.1544 29.6927 52.4191 29.7036 53.4884 30.0825C54.5697 30.4656 55.4952 31.2702 55.94 32.2137C56.2988 32.9753 56.3015 33.0186 56.3766 39.3555C56.4336 44.1577 56.5 45.8112 56.6457 46.0556C57.0669 46.7625 58.6184 47.0625 59.5257 46.6128C60.3789 46.1898 60.382 46.1639 60.382 39.4418C60.382 32.7055 60.3482 32.386 59.4612 30.7077C58.9163 29.6768 57.6063 28.3988 56.5316 27.8496C54.7818 26.9556 51.5722 26.4981 49.3485 26.8259ZM106.632 26.8721C106.383 26.9821 106.042 27.218 105.876 27.3966C105.583 27.7111 105.573 27.9558 105.532 35.1995C105.504 40.2097 105.545 42.9299 105.656 43.4421C105.896 44.5532 106.614 45.4976 107.614 46.0209L108.446 46.4556H114.769H121.092L121.457 46.049C121.848 45.6131 121.943 44.8421 121.666 44.3465C121.288 43.6688 120.954 43.63 115.502 43.63C110.566 43.63 110.361 43.619 109.983 43.3336L109.59 43.0371L109.547 35.4728C109.5 27.2942 109.529 27.5837 108.696 27.0242C108.241 26.7188 107.161 26.6392 106.632 26.8721ZM131.274 26.8283C127.697 27.3664 125.271 29.3315 124.281 32.4917C123.911 33.6724 123.804 45.28 124.157 45.9342C124.76 47.052 126.852 47.1289 127.632 46.0619C127.824 45.7987 127.868 45.2629 127.868 43.163V40.5871H133.082H138.297V43.0577C138.297 45.8119 138.399 46.2017 139.231 46.6139C139.565 46.7798 139.953 46.8301 140.538 46.7836C141.237 46.7281 141.439 46.6438 141.798 46.2582L142.226 45.7989V39.811C142.226 33.1297 142.155 32.5309 141.145 30.7147C140.171 28.9621 138.174 27.5337 136.014 27.0437C134.769 26.7612 132.426 26.6549 131.274 26.8283ZM145.415 26.8596C145.131 26.9583 144.757 27.2235 144.583 27.4488C144.29 27.828 144.267 28.0445 144.272 30.3468C144.277 33.2478 144.513 34.5 145.359 36.1212C146.375 38.0679 148.381 39.5644 150.63 40.0533L151.522 40.2472L151.597 42.9891C151.648 44.8292 151.736 45.8378 151.866 46.0556C152.471 47.0704 154.804 47.0704 155.409 46.0556C155.539 45.8378 155.627 44.8291 155.678 42.9887L155.754 40.2462L156.552 40.074C158.797 39.5904 160.926 38.0202 161.919 36.1158C162.748 34.5276 162.986 33.2532 162.998 30.3472C163.008 28.0404 162.986 27.8297 162.692 27.4492C162.027 26.5875 160.451 26.4922 159.555 27.2594L159.079 27.6669L158.991 30.5407C158.914 33.0542 158.861 33.5197 158.563 34.2524C158.038 35.5427 157.401 36.2393 156.216 36.8197C155.233 37.3005 155.1 37.3269 153.65 37.3269C152.225 37.3269 152.05 37.294 151.109 36.8499C149.917 36.2871 149.166 35.5122 148.704 34.3679C148.425 33.6769 148.365 33.1481 148.287 30.7271C148.192 27.7405 148.095 27.3413 147.384 26.9763C146.9 26.7281 145.953 26.672 145.415 26.8596ZM0.805445 27.1752C0.21931 27.4229 0 27.7886 0 28.5187C0 29.2438 0.328133 29.6727 1.0246 29.8582C1.334 29.9405 2.89622 30.0082 4.49653 30.0086L7.40605 30.0095V37.8272C7.40605 43.5797 7.45381 45.7454 7.58666 46.0249C7.68596 46.2339 7.95455 46.4977 8.18368 46.6113C8.72901 46.8817 9.87543 46.8749 10.4339 46.598C11.3498 46.1439 11.3358 46.2811 11.3358 37.7688V30.0095L14.3209 30.0092C16.8601 30.009 17.385 29.9712 17.8348 29.7556C18.8209 29.2832 19.001 28.1113 18.1985 27.3882L17.8108 27.039L9.54775 27.006C2.74719 26.9787 1.19993 27.0087 0.805445 27.1752ZM66.3521 27.1928C65.1344 27.5065 64.3942 28.0619 63.8602 29.0627L63.4048 29.9159L63.3596 36.281C63.3291 40.5737 63.3695 42.9002 63.4834 43.4264C63.7272 44.5523 64.4403 45.4953 65.4453 46.0209L66.2766 46.4556L72.3652 46.498L78.4539 46.5403L78.9022 46.1107C79.4885 45.5486 79.5237 44.7086 78.9859 44.1091L78.6214 43.7025L73.3336 43.63C68.4057 43.5625 68.0242 43.5387 67.728 43.2815C67.4289 43.0219 67.4101 42.8613 67.4101 40.5647V38.1238H71.1857C75.9821 38.1238 76.4788 37.9811 76.4788 36.6024C76.4788 35.1957 76.0858 35.0809 71.2691 35.0809H67.4101V32.835C67.4101 30.7822 67.4361 30.5641 67.7124 30.2993C68.0016 30.0221 68.2162 30.0095 72.6294 30.0095C77.5795 30.0095 77.9963 29.9569 78.4994 29.268C78.8868 28.7378 78.8114 28.0556 78.305 27.5123L77.8642 27.039L72.5238 27.0089C68.2123 26.9845 67.0232 27.0199 66.3521 27.1928ZM131.722 29.8592C128.983 30.4305 127.88 32.2893 127.871 36.3488L127.868 37.6891H133.099H138.33L138.256 35.5519C138.216 34.3763 138.104 33.1748 138.009 32.8818C137.583 31.5783 136.354 30.3803 135.06 30.0087C134.273 29.7827 132.475 29.7021 131.722 29.8592ZM94.869 33.797C96.002 39.2551 96.8526 42.9683 96.9793 43.0087C97.2394 43.0919 98.3552 41.9563 98.7533 41.2031C99.2374 40.2872 99.5149 38.8889 99.4085 37.9013C99.1816 35.7934 97.3455 33.7737 95.3261 33.4104L94.7681 33.31L94.869 33.797Z" fill="white"/>
</svg>
