<svg width="90" height="155" viewBox="0 0 90 155" fill="none" xmlns="http://www.w3.org/2000/svg">
<path fill-rule="evenodd" clip-rule="evenodd" d="M43.7036 59.8089C44.1218 117.934 44.1292 119.614 43.9691 119.5C43.8785 119.436 43.5269 119.182 43.1879 118.936C41.4885 117.703 38.8475 116.861 35.4511 116.469C33.8241 116.281 30.0362 116.21 28.6997 116.341C21.8488 117.017 14.4218 120.512 8.29373 125.944C4.73565 129.098 2.02065 132.954 0.79393 136.597C0.14048 138.537 0.000519648 139.429 0.018279 141.54C0.0351224 143.536 0.169366 144.355 0.721551 145.834C2.45065 150.463 7.08901 153.795 13.2104 154.803C14.37 154.995 17.4105 155.064 18.908 154.933C26.2988 154.287 33.6409 151.152 39.5518 146.12C43.6779 142.608 46.5482 138.299 47.6629 133.945C48.2067 131.821 48.1816 134.973 47.9601 96.6089L47.7585 61.687L49.5869 62.8453C51.3658 63.9723 53.9974 65.5365 59.9277 68.9917C71.3143 75.6259 76.4747 79.3443 79.739 83.267C84.1806 88.6046 85.6714 93.1264 85.9911 102.23C86.1078 105.557 85.7288 108.659 84.7098 112.71C83.5065 117.495 81.39 122.939 79.6183 125.807C79.377 126.198 79.1796 126.539 79.1798 126.565C79.1799 126.591 79.75 126.612 80.4464 126.612H81.7129L81.9661 126.205C84.5323 122.089 86.792 116.8 87.9877 112.111C89.1044 107.732 89.5394 104.085 89.5024 99.4074C89.4781 96.326 89.3753 95.1325 88.9189 92.6271C88.3202 89.3409 86.9367 85.2933 85.4688 82.5337L85.253 82.1281L85.6472 80.5738C86.3883 77.6507 86.8959 74.7044 87.1925 71.6041C87.3742 69.7054 87.3653 64.7215 87.1776 63.1776C86.2235 55.333 82.7654 47.4876 77.0718 40.2506C72.9048 34.954 66.7082 28.856 57.5456 21.0353C54.1743 18.1577 53.1671 17.1229 51.7682 15.0993C49.2058 11.3928 47.7871 6.84439 47.3188 0.834098L47.2537 0L45.2636 0L43.2733 0L43.7036 59.8089ZM47.5182 29.4929C48.1051 36.9016 51.7514 45.0583 57.6138 52.0775C59.5947 54.4491 60.7879 55.6283 63.855 58.2453C68.9866 62.6238 71.7784 65.1472 74.0275 67.4395C77.4883 70.9671 79.7972 73.6763 81.8867 76.6611C82.4542 77.4719 82.9315 78.0754 82.9534 78.0101C83.0238 77.8001 83.1599 75.4725 83.2452 73.0159C83.4822 66.1988 82.5599 61.8052 79.8241 56.7187C78.208 53.7138 75.4114 49.8586 72.3333 46.3923C69.1007 42.7521 64.0364 38.6553 57.9485 34.7559C54.7274 32.6927 47.8288 28.6588 47.5216 28.6588C47.4834 28.6588 47.4819 29.0341 47.5182 29.4929Z" fill="url(#paint0_linear_106_2121)"/>
<defs>
<linearGradient id="paint0_linear_106_2121" x1="43.8936" y1="0" x2="43.8936" y2="155" gradientUnits="userSpaceOnUse">
<stop stop-color="#1E8ADF"/>
<stop offset="0.52" stop-color="#407198"/>
<stop offset="0.96" stop-color="#1C74BA"/>
</linearGradient>
</defs>
</svg>
