<svg width="134" height="48" viewBox="0 0 134 48" fill="none" xmlns="http://www.w3.org/2000/svg">
<path fill-rule="evenodd" clip-rule="evenodd" d="M76.0469 0.339411C74.0583 1.5538 72.8854 4.12948 72.536 8.04871C72.4364 9.16502 72.6402 11.3241 73.0202 13.181L73.3104 14.5992L72.4905 15.4561C69.8447 18.2212 69.2841 18.8582 68.4572 20.038C66.7259 22.5089 66.053 24.4079 66.053 26.8234C66.053 28.5511 66.3255 29.6349 67.169 31.2622C68.2279 33.305 69.8773 34.9296 71.7941 35.8177C73.3718 36.5487 74.1233 36.6996 76.1392 36.6899L77.8917 36.6816L78.2084 37.9899C78.9409 41.0157 79.0732 42.5157 78.7109 43.684C78.3128 44.9667 77.0183 45.8485 75.3859 45.9488C74.7367 45.9886 74.393 45.9549 74.1367 45.8264L73.7831 45.6491L74.3319 45.3852C75.5141 44.8168 75.9769 44.1018 75.9769 42.8436C75.9769 41.0872 74.7198 39.7816 73.0287 39.7816C70.6436 39.7816 69.0903 42.5641 70.1824 44.8802C70.6166 45.8014 71.4512 46.5692 72.569 47.0761C73.375 47.4415 73.4477 47.4525 75.0718 47.4525H76.7443L77.6645 47.0166C79.8024 46.0041 80.7352 44.3867 80.5825 41.9572C80.5437 41.3397 80.2866 39.7977 80.0112 38.5303C79.7359 37.263 79.5105 36.1706 79.5105 36.1027C79.5105 36.0349 79.8127 35.8376 80.1818 35.6643C81.7572 34.9247 83.2226 33.1303 83.642 31.4273C83.8816 30.4541 83.8804 28.6382 83.6394 27.6595C83.1473 25.6607 81.7337 23.8737 80.0159 23.0787C79.1751 22.6896 78.9542 22.64 77.8734 22.5967C76.765 22.5524 76.6635 22.5284 76.6079 22.2964C76.5746 22.1578 76.3814 21.2732 76.1784 20.3308C75.8256 18.6926 75.8189 18.6061 76.024 18.3644C76.1422 18.2254 76.6038 17.6805 77.0502 17.1535C78.0506 15.9718 78.871 14.5039 79.4382 12.8807C80.8122 8.94922 80.4334 4.28547 78.5062 1.40537C77.4945 -0.106709 77.0751 -0.288466 76.0469 0.339411ZM76.6583 5.00127C76.1838 5.30641 75.556 6.24308 75.1785 7.20883C74.3682 9.28201 74.1501 11.4578 74.592 13.0629L74.7221 13.5356L75.2813 12.9449C76.5364 11.6191 77.8007 9.46471 78.2042 7.96422C78.427 7.13508 78.4604 5.84565 78.2711 5.36916C78.0034 4.69519 77.3617 4.54877 76.6583 5.00127ZM72.7654 21.3057C70.7109 23.3273 69.6874 24.7851 69.0939 26.5351C68.6082 27.9673 68.6203 29.8054 69.1239 31.0739C70.095 33.5202 72.7277 35.2323 75.493 35.2159C76.3101 35.2112 77.3555 35.0779 77.4751 34.9635C77.5803 34.8628 75.8649 26.79 75.7292 26.7467C75.653 26.7224 75.2693 26.9838 74.8763 27.3276C73.6192 28.4273 73.2714 29.6702 73.8748 30.9076C74.1398 31.4511 74.5645 31.8796 75.5532 32.6007C76.3197 33.1596 75.8545 33.7895 74.8807 33.5111C72.8141 32.9206 71.2385 30.8291 71.2385 28.6766C71.2385 26.6164 72.7015 24.1831 74.4795 23.286C74.8619 23.093 75.0456 22.93 75.0119 22.8133C74.9836 22.7154 74.836 22.0104 74.6839 21.2466C74.5316 20.4829 74.3688 19.8581 74.3219 19.8581C74.2749 19.8581 73.5744 20.5095 72.7654 21.3057ZM17.8311 21.2638C17.5052 21.4055 17.2742 21.6066 17.1754 21.8347C17.0607 22.1 17.0325 23.4081 17.0616 27.1381L17.1002 32.0894L17.4479 33.0348C17.8916 34.2415 18.3578 34.9342 19.2714 35.7438C20.6029 36.9237 22.2405 37.4607 24.5186 37.4645C28.1915 37.4705 30.8463 35.6405 31.8077 32.4398C31.9869 31.8434 32.0273 31.0257 32.0703 27.126C32.1246 22.1956 32.0903 21.8261 31.5383 21.4106C30.8469 20.8899 29.589 21.0223 29.0875 21.6687C28.8369 21.9915 28.8268 22.1597 28.7661 26.9866C28.7055 31.8104 28.6945 31.9925 28.4256 32.6306C28.0598 33.4984 27.4058 34.2122 26.6234 34.5975C25.7987 35.0037 24.1002 35.1114 23.0652 34.8234C21.6153 34.42 20.6536 33.2523 20.3758 31.5576C20.3065 31.1351 20.2495 28.8157 20.249 26.4033C20.248 22.0835 20.244 22.0122 19.9804 21.6915C19.6889 21.3367 19.0617 21.0383 18.6161 21.0424C18.4611 21.0438 18.1079 21.1435 17.8311 21.2638ZM40.3109 21.1614C37.2692 21.6091 35.3231 23.1491 34.6002 25.6801C34.4178 26.319 34.3894 27.0762 34.3872 31.3804C34.3844 36.7932 34.4041 36.9627 35.0749 37.2948C35.8246 37.6659 37.0906 37.4246 37.4366 36.8449C37.5556 36.6455 37.6098 35.297 37.6564 31.3804C37.7178 26.2121 37.72 26.1768 38.0131 25.5556C38.3795 24.7794 39.1934 24.0755 40.0428 23.8C40.9692 23.4996 42.8191 23.5084 43.6926 23.8175C44.5759 24.1299 45.3319 24.7862 45.6952 25.5556C45.9883 26.1768 45.9906 26.2121 46.0519 31.3804C46.0985 35.297 46.1527 36.6455 46.2717 36.8449C46.6158 37.4213 47.8831 37.6661 48.6243 37.2993C49.3212 36.9543 49.3237 36.9332 49.3237 31.4508C49.3237 25.9567 49.2962 25.6961 48.5716 24.3274C48.1265 23.4866 47.0564 22.4443 46.1785 21.9964C44.7491 21.2672 42.1274 20.8941 40.3109 21.1614ZM87.1035 21.1991C86.8998 21.2888 86.622 21.4812 86.4862 21.6269C86.2471 21.8834 86.2382 22.083 86.2051 27.9908C86.1823 32.077 86.2156 34.2956 86.3062 34.7133C86.5028 35.6195 87.0887 36.3898 87.9061 36.8165L88.5851 37.171H93.7503H98.9157L99.2136 36.8394C99.5331 36.484 99.6105 35.8551 99.3845 35.451C99.0754 34.8983 98.8028 34.8666 94.349 34.8666C90.3173 34.8666 90.1498 34.8576 89.8406 34.6248L89.5195 34.383L89.4844 28.2137C89.4465 21.5434 89.4704 21.7795 88.7898 21.3232C88.4183 21.0741 87.5355 21.0092 87.1035 21.1991ZM107.233 21.1634C104.311 21.6022 102.329 23.205 101.52 25.7824C101.218 26.7453 101.131 36.2123 101.419 36.7458C101.912 37.6575 103.621 37.7202 104.257 36.85C104.415 36.6353 104.45 36.1983 104.45 34.4857V32.3849H108.71H112.969V34.3998C112.969 36.6461 113.053 36.964 113.732 37.3002C114.006 37.4355 114.322 37.4765 114.8 37.4386C115.371 37.3933 115.536 37.3246 115.83 37.0101L116.179 36.6355V31.7519C116.179 26.3027 116.121 25.8143 115.296 24.3331C114.5 22.9037 112.869 21.7387 111.104 21.3391C110.088 21.1087 108.174 21.022 107.233 21.1634ZM118.784 21.189C118.552 21.2694 118.247 21.4857 118.105 21.6695C117.865 21.9788 117.846 22.1553 117.85 24.033C117.854 26.3991 118.047 27.4203 118.738 28.7425C119.568 30.3302 121.207 31.5508 123.044 31.9495L123.772 32.1076L123.834 34.3439C123.875 35.8446 123.948 36.6673 124.054 36.8449C124.548 37.6725 126.454 37.6725 126.948 36.8449C127.054 36.6673 127.126 35.8445 127.167 34.3435L127.229 32.1068L127.881 31.9664C129.715 31.5719 131.454 30.2913 132.266 28.7381C132.943 27.4428 133.137 26.4034 133.147 24.0334C133.155 22.152 133.137 21.9802 132.897 21.6698C132.353 20.967 131.066 20.8893 130.334 21.515L129.945 21.8473L129.874 24.1911C129.811 26.2412 129.767 26.6208 129.524 27.2184C129.095 28.2708 128.575 28.8388 127.607 29.3122C126.804 29.7044 126.695 29.7259 125.511 29.7259C124.347 29.7259 124.204 29.699 123.435 29.3368C122.461 28.8778 121.848 28.2458 121.471 27.3126C121.243 26.749 121.193 26.3178 121.13 24.3432C121.052 21.9074 120.973 21.5818 120.392 21.2841C119.997 21.0817 119.223 21.0359 118.784 21.189ZM0.657937 21.4464C0.179146 21.6483 0 21.9466 0 22.5421C0 23.1335 0.268039 23.4833 0.83696 23.6345C1.08969 23.7017 2.36581 23.7568 3.67304 23.7572L6.04972 23.7579V30.1339C6.04972 34.8256 6.08873 36.5919 6.19725 36.8198C6.27837 36.9902 6.49776 37.2054 6.68494 37.2981C7.13039 37.5186 8.06686 37.513 8.52306 37.2872C9.27125 36.9168 9.25977 37.0288 9.25977 30.0863V23.7579L11.6982 23.7577C13.7724 23.7576 14.2011 23.7267 14.5686 23.5509C15.3741 23.1656 15.5212 22.2098 14.8656 21.6201L14.5489 21.3353L7.79919 21.3083C2.24407 21.2861 0.980177 21.3106 0.657937 21.4464ZM54.2005 21.4607C53.2058 21.7165 52.6012 22.1695 52.165 22.9857L51.793 23.6816L51.7561 28.8729C51.7311 32.3739 51.7641 34.2713 51.8572 34.7005C52.0563 35.6188 52.6388 36.3879 53.4597 36.8165L54.1388 37.171L59.1124 37.2057L64.086 37.2402L64.4522 36.8898C64.9311 36.4314 64.9599 35.7463 64.5206 35.2573L64.2228 34.9257L59.9034 34.8666C55.878 34.8115 55.5664 34.7921 55.3244 34.5824C55.0801 34.3706 55.0648 34.2397 55.0648 32.3665V30.3758H58.1489C62.0669 30.3758 62.4726 30.2594 62.4726 29.135C62.4726 27.9877 62.1516 27.8941 58.217 27.8941H55.0648V26.0624C55.0648 24.3882 55.086 24.2103 55.3117 23.9943C55.5479 23.7682 55.7232 23.7579 59.3282 23.7579C63.3718 23.7579 63.7121 23.715 64.1232 23.1532C64.4396 22.7208 64.378 22.1644 63.9644 21.7212L63.6042 21.3353L59.2419 21.3107C55.72 21.2908 54.7487 21.3197 54.2005 21.4607ZM107.599 23.6354C105.361 24.1013 104.46 25.6173 104.453 28.9282L104.45 30.0213H108.723H112.996L112.936 28.2782C112.903 27.3194 112.812 26.3395 112.734 26.1005C112.387 25.0374 111.382 24.0603 110.326 23.7573C109.683 23.573 108.214 23.5073 107.599 23.6354ZM77.4949 26.847C78.4204 31.2985 79.1152 34.3269 79.2187 34.3598C79.4312 34.4277 80.3426 33.5015 80.6678 32.8872C81.0632 32.1402 81.2899 30.9998 81.203 30.1943C81.0177 28.4752 79.5178 26.8279 77.8682 26.5317L77.4124 26.4498L77.4949 26.847Z" fill="#0065B4"/>
</svg>
