<svg width="31" height="35" viewBox="0 0 31 35" fill="none" xmlns="http://www.w3.org/2000/svg">
<path d="M15.4365 19.7207C17.2897 19.7202 19.1436 19.7264 20.5918 19.7393C21.6944 19.7491 22.5368 19.7634 22.9736 19.7793L23.2695 19.7949C26.5417 20.1656 29.2208 22.4345 30.209 25.667L30.2988 25.9834C30.3999 26.3628 30.4441 26.5359 30.4688 26.9434C30.482 27.162 30.4891 27.4423 30.4932 27.8408L30.499 29.4492C30.501 30.7056 30.4987 31.4026 30.4795 31.834C30.4655 32.1485 30.4432 32.2998 30.4141 32.4111L30.3828 32.5137C30.2204 32.987 29.8211 33.5327 29.3975 33.876L29.2148 34.0098C28.9104 34.2096 28.9065 34.2462 28.7383 34.3008C28.5576 34.3594 28.2232 34.4112 27.4102 34.4443C25.8039 34.5099 22.5529 34.499 15.4834 34.499C9.2376 34.499 6.06555 34.4984 4.39746 34.4775C3.12141 34.4616 2.76187 34.4321 2.60645 34.3984L2.49316 34.3643C1.97703 34.18 1.52166 33.8669 1.18848 33.4775L1.05371 33.3057C0.745981 32.8811 0.640999 32.7184 0.577148 32.3096C0.520913 31.9495 0.50449 31.4288 0.500977 30.5098V29.4492C0.503177 28.0541 0.504364 27.3733 0.53125 26.9365C0.550037 26.6314 0.580495 26.4575 0.638672 26.2227L0.706055 25.9609C1.56241 22.7421 4.19355 20.3382 7.32422 19.8418L7.62891 19.7998C7.82073 19.7772 8.82103 19.7561 10.2881 19.7422C11.7322 19.7285 13.5836 19.7212 15.4365 19.7207ZM15.7305 0.504883C16.8779 0.53253 17.5731 0.675173 18.4404 1.08398L18.8252 1.27637C23.0665 3.50316 24.0461 9.17966 20.9121 12.7451L20.5967 13.083C19.6842 14.0019 18.6444 14.6117 17.3643 14.9697L17.1045 15.0371C15.7989 15.36 14.1124 15.222 12.7949 14.6914L12.5361 14.5801C10.6461 13.7095 9.16407 11.9983 8.56445 10.0264L8.45703 9.62891C7.57371 5.94005 9.47492 2.2962 12.9248 0.936523L13.2637 0.811523C13.5019 0.730317 13.8092 0.643211 14.0342 0.588867L14.2256 0.546875H14.2266C14.3623 0.522348 14.7751 0.501967 15.2471 0.5L15.7305 0.504883Z" stroke="white"/>
</svg>
