<svg width="22" height="20" viewBox="0 0 22 20" fill="none" xmlns="http://www.w3.org/2000/svg">
<path d="M16.6137 3.35713L16.6746 9.13031L21.6438 6.19098L16.6137 3.35713ZM19.2493 9.23675L19.7485 9.20805L19.2493 9.23675ZM17.3048 15.3797L17.6965 15.6904L17.3048 15.3797ZM11.7659 18.6717L11.6802 18.1791L11.6802 18.1791L11.7659 18.6717ZM5.44065 17.4439L5.17687 17.8687L5.17687 17.8687L5.44065 17.4439ZM1.53561 12.3188L1.05607 12.4603L1.53561 12.3188ZM2.03048 5.89446L1.57828 5.6811L1.57828 5.6811L2.03048 5.89446ZM6.67437 1.42785L6.47877 0.9677L6.47877 0.9677L6.67437 1.42785ZM18.4244 7.36966C18.6027 7.98299 18.7129 8.61861 18.7501 9.26545L19.7485 9.20805C19.7069 8.4856 19.5838 7.77561 19.3846 7.09051L18.4244 7.36966ZM18.7501 9.26545C18.8705 11.3598 18.2167 13.4253 16.913 15.0689L17.6965 15.6904C19.1526 13.8545 19.8829 11.5474 19.7485 9.20805L18.7501 9.26545ZM16.913 15.0689C15.6094 16.7125 13.747 17.8195 11.6802 18.1791L11.8516 19.1643C14.1601 18.7626 16.2404 17.5262 17.6965 15.6904L16.913 15.0689ZM11.6802 18.1791C9.61343 18.5387 7.48658 18.1258 5.70442 17.0191L5.17687 17.8687C7.16748 19.1048 9.5431 19.5659 11.8516 19.1643L11.6802 18.1791ZM5.70442 17.0191C3.92226 15.9124 2.6092 14.1891 2.01514 12.1772L1.05607 12.4603C1.71962 14.7076 3.18626 16.6325 5.17687 17.8687L5.70442 17.0191ZM2.01514 12.1772C1.42108 10.1652 1.58747 8.00506 2.48267 6.10782L1.57828 5.6811C0.578385 7.80025 0.392524 10.2131 1.05607 12.4603L2.01514 12.1772ZM2.48267 6.10782C3.37786 4.21059 4.93935 2.7087 6.86998 1.888L6.47877 0.9677C4.32232 1.8844 2.57818 3.56195 1.57828 5.6811L2.48267 6.10782ZM6.86998 1.888C8.80061 1.06729 10.9656 0.985062 12.9529 1.65695L13.2732 0.709627C11.0534 -0.0408488 8.63521 0.0510011 6.47877 0.9677L6.86998 1.888Z" fill="white"/>
</svg>
